<mxfile host="65bd71144e">
    <diagram id="Z5zXig8VAUnwMAtIUH25" name="Buổi 3">
        <mxGraphModel dx="413" dy="466" grid="1" gridSize="10" guides="1" tooltips="1" connect="1" arrows="1" fold="1" page="1" pageScale="1" pageWidth="850" pageHeight="1100" math="0" shadow="0">
            <root>
                <mxCell id="0"/>
                <mxCell id="1" parent="0"/>
                <mxCell id="8r6-xyiugo5AxzBQ0RvS-1" value="&lt;font style=&quot;font-size: 35px;&quot;&gt;Thực thể (Entities):&lt;/font&gt;" style="text;html=1;align=center;verticalAlign=middle;resizable=0;points=[];autosize=1;strokeColor=none;fillColor=none;" parent="1" vertex="1">
                    <mxGeometry x="320" y="18" width="320" height="60" as="geometry"/>
                </mxCell>
                <mxCell id="8r6-xyiugo5AxzBQ0RvS-2" value="&lt;p class=&quot;MsoNormal&quot;&gt;&lt;span style=&quot;font-size: 20px;&quot;&gt;1.Phòng Ban (Department)&lt;/span&gt;&lt;/p&gt;&lt;b&gt;&lt;span style=&quot;font-size: 15px; background-color: initial;&quot;&gt;- Mã Phòng Ban (PK)&lt;/span&gt;&lt;br&gt;&lt;/b&gt;&lt;font style=&quot;font-size: 15px;&quot;&gt;&lt;br&gt;&lt;span style=&quot;background-color: initial;&quot;&gt;- Tên Phòng Ban&lt;/span&gt;&lt;br&gt;&lt;/font&gt;&lt;font style=&quot;font-size: 15px;&quot;&gt;&lt;br&gt;&lt;span style=&quot;background-color: initial;&quot;&gt;- Trưởng Phòng&lt;/span&gt;&lt;br&gt;&lt;/font&gt;&lt;font style=&quot;font-size: 15px;&quot;&gt;&lt;br&gt;&lt;span style=&quot;background-color: initial;&quot;&gt;&amp;nbsp; &amp;nbsp; - Ngày Nhận Chức&lt;/span&gt;&lt;br&gt;&lt;/font&gt;&lt;font style=&quot;font-size: 15px;&quot;&gt;&lt;span style=&quot;background-color: initial;&quot;&gt;&lt;br&gt;- Địa Điểm&lt;/span&gt;&lt;br&gt;&lt;/font&gt;" style="text;whiteSpace=wrap;html=1;align=center;" parent="1" vertex="1">
                    <mxGeometry y="82" width="250" height="240" as="geometry"/>
                </mxCell>
                <mxCell id="8r6-xyiugo5AxzBQ0RvS-4" value="&lt;p class=&quot;MsoNormal&quot;&gt;&lt;/p&gt;&lt;font style=&quot;&quot;&gt;&lt;p style=&quot;&quot; class=&quot;MsoNormal&quot;&gt;&lt;font style=&quot;font-size: 20px;&quot;&gt;2.Dự Án (Project)&lt;/font&gt;&lt;/p&gt;&lt;span style=&quot;background-color: initial; font-size: 15px;&quot;&gt;&lt;b&gt;- Mã Dự Án (PK)&lt;/b&gt;&lt;/span&gt;&lt;br&gt;&lt;br&gt;&lt;span style=&quot;font-size: 15px; background-color: initial;&quot;&gt;- Tên Dự Án&lt;/span&gt;&lt;br&gt;&lt;br&gt;&lt;span style=&quot;font-size: 15px; background-color: initial;&quot;&gt;- Phòng Ban Chủ Trì&lt;/span&gt;&lt;br&gt;&lt;br&gt;&lt;span style=&quot;font-size: 15px; background-color: initial;&quot;&gt;- Địa Điểm Triển Khai&lt;/span&gt;&lt;br&gt;&lt;/font&gt;" style="text;whiteSpace=wrap;html=1;align=center;" parent="1" vertex="1">
                    <mxGeometry x="260" y="82" width="190" height="190" as="geometry"/>
                </mxCell>
                <mxCell id="8r6-xyiugo5AxzBQ0RvS-5" value="&lt;p class=&quot;MsoNormal&quot;&gt;&lt;/p&gt;&lt;font style=&quot;font-size: 15px;&quot;&gt;&lt;p style=&quot;&quot; class=&quot;MsoNormal&quot;&gt;&lt;/p&gt;&lt;p class=&quot;MsoNormal&quot;&gt;&lt;font style=&quot;font-size: 20px;&quot;&gt;3.Nhân Viên (Employee)&lt;/font&gt;&lt;/p&gt;&lt;span style=&quot;background-color: initial;&quot;&gt;&lt;b&gt;- Mã Nhân Viên (PK)&lt;/b&gt;&lt;/span&gt;&lt;br&gt;&lt;span style=&quot;background-color: initial;&quot;&gt;&lt;br&gt;- Tên&lt;/span&gt;&lt;br&gt;&lt;span style=&quot;background-color: initial;&quot;&gt;&lt;br&gt;- Địa Chỉ&lt;/span&gt;&lt;br&gt;&lt;br&gt;&lt;span style=&quot;background-color: initial;&quot;&gt;- Ngày Sinh&lt;/span&gt;&lt;br&gt;&lt;br&gt;&lt;span style=&quot;background-color: initial;&quot;&gt;- Giới Tính&lt;/span&gt;&lt;br&gt;&lt;br&gt;&lt;span style=&quot;background-color: initial;&quot;&gt;- Lương&lt;/span&gt;&lt;span style=&quot;background-color: initial;&quot;&gt;&lt;br&gt;&lt;/span&gt;&lt;/font&gt;" style="text;whiteSpace=wrap;html=1;align=center;" parent="1" vertex="1">
                    <mxGeometry x="440" y="78" width="230" height="262" as="geometry"/>
                </mxCell>
                <mxCell id="8r6-xyiugo5AxzBQ0RvS-6" value="&lt;p class=&quot;MsoNormal&quot;&gt;&lt;/p&gt;&lt;font style=&quot;&quot;&gt;&lt;p style=&quot;font-size: 15px;&quot; class=&quot;MsoNormal&quot;&gt;&lt;/p&gt;&lt;p style=&quot;font-size: 15px;&quot; class=&quot;MsoNormal&quot;&gt;&lt;/p&gt;&lt;p style=&quot;&quot; class=&quot;MsoNormal&quot;&gt;&lt;font style=&quot;font-size: 20px;&quot;&gt;4.Người Con (Dependent)&lt;/font&gt;&lt;/p&gt;&lt;span style=&quot;font-size: 15px; background-color: initial;&quot;&gt;- Tên&lt;/span&gt;&lt;br&gt;&lt;br&gt;&lt;span style=&quot;font-size: 15px; background-color: initial;&quot;&gt;- Giới Tính&lt;/span&gt;&lt;br&gt;&lt;br&gt;&lt;span style=&quot;font-size: 15px; background-color: initial;&quot;&gt;- Ngày Sinh&lt;/span&gt;&lt;br&gt;&lt;br&gt;&lt;span style=&quot;font-size: 15px; background-color: initial;&quot;&gt;&lt;br&gt;&lt;br&gt;&lt;/span&gt;&lt;span style=&quot;font-size: 15px; background-color: initial;&quot;&gt;&lt;br&gt;&lt;/span&gt;&lt;/font&gt;" style="text;whiteSpace=wrap;html=1;align=center;" parent="1" vertex="1">
                    <mxGeometry x="680" y="78" width="241" height="152" as="geometry"/>
                </mxCell>
                <mxCell id="8r6-xyiugo5AxzBQ0RvS-8" value="&lt;font style=&quot;font-size: 20px;&quot;&gt;Nhân Viên&lt;/font&gt;" style="whiteSpace=wrap;html=1;align=center;" parent="1" vertex="1">
                    <mxGeometry x="410" y="600" width="140" height="40" as="geometry"/>
                </mxCell>
                <mxCell id="8r6-xyiugo5AxzBQ0RvS-11" value="&lt;font style=&quot;font-size: 15px;&quot;&gt;Mã NV&lt;/font&gt;" style="ellipse;whiteSpace=wrap;html=1;align=center;fontStyle=4;" parent="1" vertex="1">
                    <mxGeometry x="330" y="520" width="100" height="40" as="geometry"/>
                </mxCell>
                <mxCell id="8r6-xyiugo5AxzBQ0RvS-19" value="&lt;font style=&quot;font-size: 20px;&quot;&gt;Trưởng Phòng&lt;/font&gt;" style="shape=rhombus;perimeter=rhombusPerimeter;whiteSpace=wrap;html=1;align=center;" parent="1" vertex="1">
                    <mxGeometry x="230" y="720" width="160" height="80" as="geometry"/>
                </mxCell>
                <mxCell id="8r6-xyiugo5AxzBQ0RvS-23" value="&lt;font style=&quot;font-size: 15px;&quot;&gt;Ngày nhận chức&lt;/font&gt;" style="ellipse;whiteSpace=wrap;html=1;align=center;" parent="1" vertex="1">
                    <mxGeometry x="40" y="725" width="120" height="70" as="geometry"/>
                </mxCell>
                <mxCell id="8r6-xyiugo5AxzBQ0RvS-24" value="&lt;font style=&quot;font-size: 20px;&quot;&gt;Làm Việc&lt;/font&gt;" style="shape=rhombus;perimeter=rhombusPerimeter;whiteSpace=wrap;html=1;align=center;" parent="1" vertex="1">
                    <mxGeometry x="416.25" y="732.5" width="127.5" height="55" as="geometry"/>
                </mxCell>
                <mxCell id="8r6-xyiugo5AxzBQ0RvS-25" value="" style="endArrow=none;html=1;rounded=0;entryX=0.5;entryY=0;entryDx=0;entryDy=0;exitX=0;exitY=1;exitDx=0;exitDy=0;" parent="1" source="8r6-xyiugo5AxzBQ0RvS-86" target="8r6-xyiugo5AxzBQ0RvS-8" edge="1">
                    <mxGeometry relative="1" as="geometry">
                        <mxPoint x="515" y="470" as="sourcePoint"/>
                        <mxPoint x="550" y="620" as="targetPoint"/>
                        <Array as="points"/>
                    </mxGeometry>
                </mxCell>
                <mxCell id="8r6-xyiugo5AxzBQ0RvS-26" value="" style="endArrow=none;html=1;rounded=0;entryX=0.5;entryY=0;entryDx=0;entryDy=0;exitX=0;exitY=1;exitDx=0;exitDy=0;" parent="1" source="8r6-xyiugo5AxzBQ0RvS-87" target="8r6-xyiugo5AxzBQ0RvS-8" edge="1">
                    <mxGeometry relative="1" as="geometry">
                        <mxPoint x="535" y="510" as="sourcePoint"/>
                        <mxPoint x="495" y="610" as="targetPoint"/>
                    </mxGeometry>
                </mxCell>
                <mxCell id="8r6-xyiugo5AxzBQ0RvS-27" value="" style="endArrow=none;html=1;rounded=0;exitX=0;exitY=1;exitDx=0;exitDy=0;entryX=0.5;entryY=0;entryDx=0;entryDy=0;" parent="1" source="8r6-xyiugo5AxzBQ0RvS-88" target="8r6-xyiugo5AxzBQ0RvS-8" edge="1">
                    <mxGeometry relative="1" as="geometry">
                        <mxPoint x="554.6446609406726" y="554.1421356237311" as="sourcePoint"/>
                        <mxPoint x="525" y="620" as="targetPoint"/>
                    </mxGeometry>
                </mxCell>
                <mxCell id="8r6-xyiugo5AxzBQ0RvS-30" value="" style="endArrow=none;html=1;rounded=0;exitX=1;exitY=1;exitDx=0;exitDy=0;entryX=0.5;entryY=0;entryDx=0;entryDy=0;" parent="1" source="8r6-xyiugo5AxzBQ0RvS-11" target="8r6-xyiugo5AxzBQ0RvS-8" edge="1">
                    <mxGeometry relative="1" as="geometry">
                        <mxPoint x="425" y="570" as="sourcePoint"/>
                        <mxPoint x="430" y="730" as="targetPoint"/>
                    </mxGeometry>
                </mxCell>
                <mxCell id="8r6-xyiugo5AxzBQ0RvS-31" value="" style="endArrow=none;html=1;rounded=0;entryX=0.5;entryY=0;entryDx=0;entryDy=0;exitX=1;exitY=1;exitDx=0;exitDy=0;" parent="1" source="8r6-xyiugo5AxzBQ0RvS-84" target="8r6-xyiugo5AxzBQ0RvS-8" edge="1">
                    <mxGeometry relative="1" as="geometry">
                        <mxPoint x="440" y="530" as="sourcePoint"/>
                        <mxPoint x="430" y="670" as="targetPoint"/>
                    </mxGeometry>
                </mxCell>
                <mxCell id="8r6-xyiugo5AxzBQ0RvS-32" value="" style="endArrow=none;html=1;rounded=0;exitX=0.5;exitY=1;exitDx=0;exitDy=0;entryX=0.5;entryY=0;entryDx=0;entryDy=0;" parent="1" source="8r6-xyiugo5AxzBQ0RvS-85" target="8r6-xyiugo5AxzBQ0RvS-8" edge="1">
                    <mxGeometry relative="1" as="geometry">
                        <mxPoint x="454.03" y="481.4000000000001" as="sourcePoint"/>
                        <mxPoint x="435" y="630" as="targetPoint"/>
                    </mxGeometry>
                </mxCell>
                <mxCell id="8r6-xyiugo5AxzBQ0RvS-36" value="" style="endArrow=none;html=1;rounded=0;exitX=1;exitY=0.5;exitDx=0;exitDy=0;entryX=0;entryY=0.5;entryDx=0;entryDy=0;" parent="1" source="8r6-xyiugo5AxzBQ0RvS-23" target="8r6-xyiugo5AxzBQ0RvS-19" edge="1">
                    <mxGeometry relative="1" as="geometry">
                        <mxPoint x="160" y="820" as="sourcePoint"/>
                        <mxPoint x="320" y="820" as="targetPoint"/>
                    </mxGeometry>
                </mxCell>
                <mxCell id="8r6-xyiugo5AxzBQ0RvS-37" value="" style="fontSize=12;html=1;endArrow=ERmandOne;startArrow=ERmandOne;rounded=0;entryX=0.5;entryY=1;entryDx=0;entryDy=0;exitX=0.5;exitY=0;exitDx=0;exitDy=0;" parent="1" source="8r6-xyiugo5AxzBQ0RvS-24" target="8r6-xyiugo5AxzBQ0RvS-8" edge="1">
                    <mxGeometry width="100" height="100" relative="1" as="geometry">
                        <mxPoint x="370" y="930" as="sourcePoint"/>
                        <mxPoint x="470" y="830" as="targetPoint"/>
                    </mxGeometry>
                </mxCell>
                <mxCell id="8r6-xyiugo5AxzBQ0RvS-38" value="&lt;font style=&quot;font-size: 20px;&quot;&gt;Có&lt;/font&gt;" style="shape=rhombus;perimeter=rhombusPerimeter;whiteSpace=wrap;html=1;align=center;" parent="1" vertex="1">
                    <mxGeometry x="670" y="592.5" width="127.5" height="55" as="geometry"/>
                </mxCell>
                <mxCell id="8r6-xyiugo5AxzBQ0RvS-40" value="&lt;font style=&quot;font-size: 15px;&quot;&gt;Người Con&lt;/font&gt;" style="shape=ext;margin=3;double=1;whiteSpace=wrap;html=1;align=center;" parent="1" vertex="1">
                    <mxGeometry x="924.5" y="600" width="131" height="40" as="geometry"/>
                </mxCell>
                <mxCell id="8r6-xyiugo5AxzBQ0RvS-52" value="" style="edgeStyle=entityRelationEdgeStyle;fontSize=12;html=1;endArrow=ERzeroToOne;endFill=1;rounded=0;entryX=1;entryY=0.5;entryDx=0;entryDy=0;exitX=0;exitY=0.5;exitDx=0;exitDy=0;" parent="1" source="8r6-xyiugo5AxzBQ0RvS-38" target="8r6-xyiugo5AxzBQ0RvS-8" edge="1">
                    <mxGeometry width="100" height="100" relative="1" as="geometry">
                        <mxPoint x="610" y="730" as="sourcePoint"/>
                        <mxPoint x="710" y="630" as="targetPoint"/>
                    </mxGeometry>
                </mxCell>
                <mxCell id="8r6-xyiugo5AxzBQ0RvS-54" value="" style="fontSize=12;html=1;endArrow=ERoneToMany;rounded=0;entryX=0;entryY=0.5;entryDx=0;entryDy=0;exitX=0.5;exitY=0;exitDx=0;exitDy=0;" parent="1" source="8r6-xyiugo5AxzBQ0RvS-19" target="8r6-xyiugo5AxzBQ0RvS-8" edge="1">
                    <mxGeometry width="100" height="100" relative="1" as="geometry">
                        <mxPoint x="570" y="620" as="sourcePoint"/>
                        <mxPoint x="670" y="520" as="targetPoint"/>
                    </mxGeometry>
                </mxCell>
                <mxCell id="8r6-xyiugo5AxzBQ0RvS-55" value="" style="fontSize=12;html=1;endArrow=ERoneToMany;rounded=0;entryX=0;entryY=0.5;entryDx=0;entryDy=0;exitX=1;exitY=0.5;exitDx=0;exitDy=0;" parent="1" source="8r6-xyiugo5AxzBQ0RvS-38" target="8r6-xyiugo5AxzBQ0RvS-40" edge="1">
                    <mxGeometry width="100" height="100" relative="1" as="geometry">
                        <mxPoint x="320" y="730" as="sourcePoint"/>
                        <mxPoint x="420" y="630" as="targetPoint"/>
                    </mxGeometry>
                </mxCell>
                <mxCell id="8r6-xyiugo5AxzBQ0RvS-56" value="&lt;font style=&quot;font-size: 20px;&quot;&gt;Tham gia&lt;/font&gt;" style="shape=rhombus;perimeter=rhombusPerimeter;whiteSpace=wrap;html=1;align=center;" parent="1" vertex="1">
                    <mxGeometry x="650" y="732.5" width="127.5" height="55" as="geometry"/>
                </mxCell>
                <mxCell id="8r6-xyiugo5AxzBQ0RvS-57" value="" style="fontSize=12;html=1;endArrow=ERoneToMany;rounded=0;entryX=1;entryY=1;entryDx=0;entryDy=0;exitX=0;exitY=0.5;exitDx=0;exitDy=0;" parent="1" source="8r6-xyiugo5AxzBQ0RvS-56" target="8r6-xyiugo5AxzBQ0RvS-8" edge="1">
                    <mxGeometry width="100" height="100" relative="1" as="geometry">
                        <mxPoint x="320" y="730" as="sourcePoint"/>
                        <mxPoint x="420" y="630" as="targetPoint"/>
                        <Array as="points">
                            <mxPoint x="570" y="760"/>
                        </Array>
                    </mxGeometry>
                </mxCell>
                <mxCell id="8r6-xyiugo5AxzBQ0RvS-58" value="&lt;font style=&quot;font-size: 15px;&quot;&gt;Thời gian&lt;/font&gt;" style="ellipse;whiteSpace=wrap;html=1;align=center;" parent="1" vertex="1">
                    <mxGeometry x="710" y="672.5" width="120" height="47.5" as="geometry"/>
                </mxCell>
                <mxCell id="8r6-xyiugo5AxzBQ0RvS-59" value="" style="endArrow=none;html=1;rounded=0;exitX=0.5;exitY=0;exitDx=0;exitDy=0;entryX=0;entryY=1;entryDx=0;entryDy=0;" parent="1" source="8r6-xyiugo5AxzBQ0RvS-56" target="8r6-xyiugo5AxzBQ0RvS-58" edge="1">
                    <mxGeometry relative="1" as="geometry">
                        <mxPoint x="170" y="770" as="sourcePoint"/>
                        <mxPoint x="240" y="770" as="targetPoint"/>
                    </mxGeometry>
                </mxCell>
                <mxCell id="8r6-xyiugo5AxzBQ0RvS-61" value="&lt;span style=&quot;font-size: 20px;&quot;&gt;Dự án&lt;/span&gt;" style="whiteSpace=wrap;html=1;align=center;" parent="1" vertex="1">
                    <mxGeometry x="840" y="880" width="140" height="60" as="geometry"/>
                </mxCell>
                <mxCell id="8r6-xyiugo5AxzBQ0RvS-62" value="" style="fontSize=12;html=1;endArrow=ERoneToMany;rounded=0;entryX=0.25;entryY=0;entryDx=0;entryDy=0;exitX=1;exitY=0.5;exitDx=0;exitDy=0;" parent="1" source="8r6-xyiugo5AxzBQ0RvS-56" target="8r6-xyiugo5AxzBQ0RvS-61" edge="1">
                    <mxGeometry width="100" height="100" relative="1" as="geometry">
                        <mxPoint x="660" y="770" as="sourcePoint"/>
                        <mxPoint x="560" y="650" as="targetPoint"/>
                        <Array as="points">
                            <mxPoint x="870" y="760"/>
                        </Array>
                    </mxGeometry>
                </mxCell>
                <mxCell id="8r6-xyiugo5AxzBQ0RvS-64" value="&lt;font style=&quot;font-size: 15px;&quot;&gt;Tên dự án&lt;/font&gt;" style="ellipse;whiteSpace=wrap;html=1;align=center;" parent="1" vertex="1">
                    <mxGeometry x="1110" y="886.25" width="120" height="47.5" as="geometry"/>
                </mxCell>
                <mxCell id="8r6-xyiugo5AxzBQ0RvS-67" value="" style="endArrow=none;html=1;rounded=0;exitX=1;exitY=0.5;exitDx=0;exitDy=0;entryX=0;entryY=0.5;entryDx=0;entryDy=0;" parent="1" source="8r6-xyiugo5AxzBQ0RvS-61" target="8r6-xyiugo5AxzBQ0RvS-64" edge="1">
                    <mxGeometry relative="1" as="geometry">
                        <mxPoint x="724" y="743" as="sourcePoint"/>
                        <mxPoint x="737" y="723" as="targetPoint"/>
                    </mxGeometry>
                </mxCell>
                <mxCell id="8r6-xyiugo5AxzBQ0RvS-68" value="" style="endArrow=none;html=1;rounded=0;exitX=1;exitY=0.5;exitDx=0;exitDy=0;entryX=0;entryY=1;entryDx=0;entryDy=0;" parent="1" source="8r6-xyiugo5AxzBQ0RvS-61" target="8r6-xyiugo5AxzBQ0RvS-106" edge="1">
                    <mxGeometry relative="1" as="geometry">
                        <mxPoint x="734" y="753" as="sourcePoint"/>
                        <mxPoint x="1026.8985017624323" y="870.272240991068" as="targetPoint"/>
                    </mxGeometry>
                </mxCell>
                <mxCell id="8r6-xyiugo5AxzBQ0RvS-69" value="&lt;font style=&quot;font-size: 20px;&quot;&gt;Chủ trì&lt;/font&gt;" style="shape=rhombus;perimeter=rhombusPerimeter;whiteSpace=wrap;html=1;align=center;" parent="1" vertex="1">
                    <mxGeometry x="653.75" y="871" width="127.5" height="77.5" as="geometry"/>
                </mxCell>
                <mxCell id="8r6-xyiugo5AxzBQ0RvS-70" value="&lt;span style=&quot;font-size: 15px;&quot;&gt;Địa điểm&lt;/span&gt;" style="ellipse;whiteSpace=wrap;html=1;align=center;" parent="1" vertex="1">
                    <mxGeometry x="720" y="974.5" width="120" height="47.5" as="geometry"/>
                </mxCell>
                <mxCell id="8r6-xyiugo5AxzBQ0RvS-71" value="" style="endArrow=none;html=1;rounded=0;exitX=0.5;exitY=1;exitDx=0;exitDy=0;entryX=0.5;entryY=0;entryDx=0;entryDy=0;" parent="1" source="8r6-xyiugo5AxzBQ0RvS-69" target="8r6-xyiugo5AxzBQ0RvS-70" edge="1">
                    <mxGeometry relative="1" as="geometry">
                        <mxPoint x="817.75" y="743" as="sourcePoint"/>
                        <mxPoint x="830.75" y="723" as="targetPoint"/>
                    </mxGeometry>
                </mxCell>
                <mxCell id="8r6-xyiugo5AxzBQ0RvS-72" value="&lt;span style=&quot;font-size: 20px;&quot;&gt;Phòng ban&lt;/span&gt;" style="whiteSpace=wrap;html=1;align=center;" parent="1" vertex="1">
                    <mxGeometry x="410" y="880" width="140" height="60" as="geometry"/>
                </mxCell>
                <mxCell id="8r6-xyiugo5AxzBQ0RvS-76" value="&lt;font style=&quot;font-size: 15px;&quot;&gt;Địa điểm&lt;/font&gt;" style="ellipse;whiteSpace=wrap;html=1;align=center;" parent="1" vertex="1">
                    <mxGeometry x="570" y="1022" width="120" height="47.5" as="geometry"/>
                </mxCell>
                <mxCell id="8r6-xyiugo5AxzBQ0RvS-78" value="&lt;font style=&quot;font-size: 15px;&quot;&gt;Tên phòng ban&lt;/font&gt;" style="ellipse;whiteSpace=wrap;html=1;align=center;" parent="1" vertex="1">
                    <mxGeometry x="430" y="1022" width="120" height="47.5" as="geometry"/>
                </mxCell>
                <mxCell id="8r6-xyiugo5AxzBQ0RvS-79" value="" style="endArrow=none;html=1;rounded=0;exitX=0.5;exitY=1;exitDx=0;exitDy=0;entryX=0.5;entryY=0;entryDx=0;entryDy=0;" parent="1" source="8r6-xyiugo5AxzBQ0RvS-72" target="8r6-xyiugo5AxzBQ0RvS-78" edge="1">
                    <mxGeometry relative="1" as="geometry">
                        <mxPoint x="738" y="968" as="sourcePoint"/>
                        <mxPoint x="850.75" y="743" as="targetPoint"/>
                    </mxGeometry>
                </mxCell>
                <mxCell id="8r6-xyiugo5AxzBQ0RvS-81" value="" style="endArrow=none;html=1;rounded=0;exitX=0.5;exitY=1;exitDx=0;exitDy=0;entryX=0.5;entryY=0;entryDx=0;entryDy=0;" parent="1" source="8r6-xyiugo5AxzBQ0RvS-72" target="8r6-xyiugo5AxzBQ0RvS-105" edge="1">
                    <mxGeometry relative="1" as="geometry">
                        <mxPoint x="274.25" y="990" as="sourcePoint"/>
                        <mxPoint x="356.25000000000045" y="1022" as="targetPoint"/>
                    </mxGeometry>
                </mxCell>
                <mxCell id="8r6-xyiugo5AxzBQ0RvS-84" value="&lt;font style=&quot;font-size: 15px;&quot;&gt;Tên&lt;/font&gt;" style="ellipse;whiteSpace=wrap;html=1;align=center;" parent="1" vertex="1">
                    <mxGeometry x="340" y="480" width="100" height="37.5" as="geometry"/>
                </mxCell>
                <mxCell id="8r6-xyiugo5AxzBQ0RvS-85" value="&lt;span style=&quot;font-size: 15px;&quot;&gt;Địa chỉ&lt;/span&gt;" style="ellipse;whiteSpace=wrap;html=1;align=center;" parent="1" vertex="1">
                    <mxGeometry x="400" y="440" width="100" height="37.5" as="geometry"/>
                </mxCell>
                <mxCell id="8r6-xyiugo5AxzBQ0RvS-86" value="&lt;font style=&quot;font-size: 15px;&quot;&gt;Ngày sinh&lt;/font&gt;" style="ellipse;whiteSpace=wrap;html=1;align=center;" parent="1" vertex="1">
                    <mxGeometry x="505" y="438.75" width="100" height="40" as="geometry"/>
                </mxCell>
                <mxCell id="8r6-xyiugo5AxzBQ0RvS-87" value="&lt;font style=&quot;font-size: 15px;&quot;&gt;Giới tính&lt;/font&gt;" style="ellipse;whiteSpace=wrap;html=1;align=center;" parent="1" vertex="1">
                    <mxGeometry x="520" y="485" width="100" height="37.5" as="geometry"/>
                </mxCell>
                <mxCell id="8r6-xyiugo5AxzBQ0RvS-88" value="&lt;font style=&quot;font-size: 15px;&quot;&gt;Lương&lt;/font&gt;" style="ellipse;whiteSpace=wrap;html=1;align=center;" parent="1" vertex="1">
                    <mxGeometry x="540" y="522.5" width="100" height="37.5" as="geometry"/>
                </mxCell>
                <mxCell id="8r6-xyiugo5AxzBQ0RvS-89" value="" style="endArrow=none;html=1;rounded=0;entryX=0.5;entryY=0;entryDx=0;entryDy=0;exitX=0.5;exitY=1;exitDx=0;exitDy=0;" parent="1" source="8r6-xyiugo5AxzBQ0RvS-93" target="8r6-xyiugo5AxzBQ0RvS-40" edge="1">
                    <mxGeometry relative="1" as="geometry">
                        <mxPoint x="1005" y="471.25" as="sourcePoint"/>
                        <mxPoint x="970" y="601.25" as="targetPoint"/>
                        <Array as="points"/>
                    </mxGeometry>
                </mxCell>
                <mxCell id="8r6-xyiugo5AxzBQ0RvS-90" value="" style="endArrow=none;html=1;rounded=0;exitX=0;exitY=1;exitDx=0;exitDy=0;entryX=0.5;entryY=0;entryDx=0;entryDy=0;" parent="1" source="8r6-xyiugo5AxzBQ0RvS-94" target="8r6-xyiugo5AxzBQ0RvS-40" edge="1">
                    <mxGeometry relative="1" as="geometry">
                        <mxPoint x="1025" y="511.25" as="sourcePoint"/>
                        <mxPoint x="990" y="601" as="targetPoint"/>
                    </mxGeometry>
                </mxCell>
                <mxCell id="8r6-xyiugo5AxzBQ0RvS-91" value="" style="endArrow=none;html=1;rounded=0;entryX=0.5;entryY=0;entryDx=0;entryDy=0;exitX=1;exitY=1;exitDx=0;exitDy=0;" parent="1" source="8r6-xyiugo5AxzBQ0RvS-92" target="8r6-xyiugo5AxzBQ0RvS-40" edge="1">
                    <mxGeometry relative="1" as="geometry">
                        <mxPoint x="930" y="531.25" as="sourcePoint"/>
                        <mxPoint x="970" y="601.25" as="targetPoint"/>
                    </mxGeometry>
                </mxCell>
                <mxCell id="8r6-xyiugo5AxzBQ0RvS-92" value="&lt;font style=&quot;font-size: 15px;&quot;&gt;Tên&lt;/font&gt;" style="ellipse;whiteSpace=wrap;html=1;align=center;" parent="1" vertex="1">
                    <mxGeometry x="860" y="480" width="100" height="37.5" as="geometry"/>
                </mxCell>
                <mxCell id="8r6-xyiugo5AxzBQ0RvS-93" value="&lt;font style=&quot;font-size: 15px;&quot;&gt;Ngày sinh&lt;/font&gt;" style="ellipse;whiteSpace=wrap;html=1;align=center;" parent="1" vertex="1">
                    <mxGeometry x="940" y="440" width="100" height="40" as="geometry"/>
                </mxCell>
                <mxCell id="8r6-xyiugo5AxzBQ0RvS-94" value="&lt;font style=&quot;font-size: 15px;&quot;&gt;Giới tính&lt;/font&gt;" style="ellipse;whiteSpace=wrap;html=1;align=center;" parent="1" vertex="1">
                    <mxGeometry x="1020" y="481.25" width="100" height="37.5" as="geometry"/>
                </mxCell>
                <mxCell id="8r6-xyiugo5AxzBQ0RvS-95" value="" style="edgeStyle=entityRelationEdgeStyle;fontSize=12;html=1;endArrow=ERone;endFill=1;rounded=0;entryX=0;entryY=0.5;entryDx=0;entryDy=0;exitX=1;exitY=0.5;exitDx=0;exitDy=0;" parent="1" source="8r6-xyiugo5AxzBQ0RvS-69" target="8r6-xyiugo5AxzBQ0RvS-61" edge="1">
                    <mxGeometry width="100" height="100" relative="1" as="geometry">
                        <mxPoint x="680" y="1050" as="sourcePoint"/>
                        <mxPoint x="780" y="950" as="targetPoint"/>
                    </mxGeometry>
                </mxCell>
                <mxCell id="8r6-xyiugo5AxzBQ0RvS-96" value="" style="edgeStyle=entityRelationEdgeStyle;fontSize=12;html=1;endArrow=ERone;endFill=1;rounded=0;entryX=1;entryY=0.5;entryDx=0;entryDy=0;exitX=0;exitY=0.5;exitDx=0;exitDy=0;" parent="1" source="8r6-xyiugo5AxzBQ0RvS-69" target="8r6-xyiugo5AxzBQ0RvS-72" edge="1">
                    <mxGeometry width="100" height="100" relative="1" as="geometry">
                        <mxPoint x="791" y="930" as="sourcePoint"/>
                        <mxPoint x="850" y="930" as="targetPoint"/>
                    </mxGeometry>
                </mxCell>
                <mxCell id="8r6-xyiugo5AxzBQ0RvS-99" value="" style="endArrow=none;html=1;rounded=0;exitX=0.5;exitY=1;exitDx=0;exitDy=0;entryX=0.5;entryY=0;entryDx=0;entryDy=0;" parent="1" source="8r6-xyiugo5AxzBQ0RvS-72" target="8r6-xyiugo5AxzBQ0RvS-76" edge="1">
                    <mxGeometry relative="1" as="geometry">
                        <mxPoint x="510" y="980" as="sourcePoint"/>
                        <mxPoint x="670" y="980" as="targetPoint"/>
                    </mxGeometry>
                </mxCell>
                <mxCell id="8r6-xyiugo5AxzBQ0RvS-100" value="M" style="resizable=0;html=1;whiteSpace=wrap;align=left;verticalAlign=bottom;" parent="8r6-xyiugo5AxzBQ0RvS-99" connectable="0" vertex="1">
                    <mxGeometry x="-1" relative="1" as="geometry"/>
                </mxCell>
                <mxCell id="8r6-xyiugo5AxzBQ0RvS-101" value="N" style="resizable=0;html=1;whiteSpace=wrap;align=right;verticalAlign=bottom;" parent="8r6-xyiugo5AxzBQ0RvS-99" connectable="0" vertex="1">
                    <mxGeometry x="1" relative="1" as="geometry"/>
                </mxCell>
                <mxCell id="8r6-xyiugo5AxzBQ0RvS-102" value="" style="fontSize=12;html=1;endArrow=ERmandOne;startArrow=ERmandOne;rounded=0;entryX=0;entryY=0.5;entryDx=0;entryDy=0;exitX=0.5;exitY=1;exitDx=0;exitDy=0;" parent="1" source="8r6-xyiugo5AxzBQ0RvS-19" target="8r6-xyiugo5AxzBQ0RvS-72" edge="1">
                    <mxGeometry width="100" height="100" relative="1" as="geometry">
                        <mxPoint x="350" y="910" as="sourcePoint"/>
                        <mxPoint x="450" y="810" as="targetPoint"/>
                        <Array as="points">
                            <mxPoint x="310" y="910"/>
                        </Array>
                    </mxGeometry>
                </mxCell>
                <mxCell id="8r6-xyiugo5AxzBQ0RvS-104" value="" style="fontSize=12;html=1;endArrow=ERone;endFill=1;rounded=0;entryX=0.5;entryY=0;entryDx=0;entryDy=0;exitX=0.5;exitY=1;exitDx=0;exitDy=0;" parent="1" source="8r6-xyiugo5AxzBQ0RvS-24" target="8r6-xyiugo5AxzBQ0RvS-72" edge="1">
                    <mxGeometry width="100" height="100" relative="1" as="geometry">
                        <mxPoint x="460" y="900" as="sourcePoint"/>
                        <mxPoint x="560" y="800" as="targetPoint"/>
                    </mxGeometry>
                </mxCell>
                <mxCell id="8r6-xyiugo5AxzBQ0RvS-105" value="&lt;font style=&quot;font-size: 15px;&quot;&gt;Mã phòng ban&lt;/font&gt;" style="ellipse;whiteSpace=wrap;html=1;align=center;fontStyle=4;" parent="1" vertex="1">
                    <mxGeometry x="305" y="1025.75" width="115" height="44.25" as="geometry"/>
                </mxCell>
                <mxCell id="8r6-xyiugo5AxzBQ0RvS-106" value="&lt;font style=&quot;font-size: 15px;&quot;&gt;Mã dự án&lt;/font&gt;" style="ellipse;whiteSpace=wrap;html=1;align=center;fontStyle=4;" parent="1" vertex="1">
                    <mxGeometry x="1055.5" y="826.75" width="115" height="44.25" as="geometry"/>
                </mxCell>
                <mxCell id="5kLDbmhYOM6bsbGMBPwA-1" value="Bước 1: xác định các thực thể&lt;br&gt;" style="text;html=1;align=center;verticalAlign=middle;resizable=0;points=[];autosize=1;strokeColor=none;fillColor=none;" parent="1" vertex="1">
                    <mxGeometry x="32" y="1130" width="180" height="30" as="geometry"/>
                </mxCell>
                <mxCell id="5kLDbmhYOM6bsbGMBPwA-2" value="Bước 2: Liên hệ thuộc tính" style="text;html=1;align=center;verticalAlign=middle;resizable=0;points=[];autosize=1;strokeColor=none;fillColor=none;" parent="1" vertex="1">
                    <mxGeometry x="28" y="1170" width="170" height="30" as="geometry"/>
                </mxCell>
                <mxCell id="5kLDbmhYOM6bsbGMBPwA-3" value="Bước 3: Xác định PK, FK" style="text;html=1;align=center;verticalAlign=middle;resizable=0;points=[];autosize=1;strokeColor=none;fillColor=none;" parent="1" vertex="1">
                    <mxGeometry x="29" y="1210" width="160" height="30" as="geometry"/>
                </mxCell>
                <mxCell id="5kLDbmhYOM6bsbGMBPwA-4" value="Bước 4: Mối quan hệ" style="text;html=1;align=center;verticalAlign=middle;resizable=0;points=[];autosize=1;strokeColor=none;fillColor=none;" parent="1" vertex="1">
                    <mxGeometry x="28" y="1250" width="140" height="30" as="geometry"/>
                </mxCell>
            </root>
        </mxGraphModel>
    </diagram>
    <diagram id="g9n93jC7rrJqS0u1azts" name="Buổi 5">
        <mxGraphModel dx="413" dy="466" grid="1" gridSize="10" guides="1" tooltips="1" connect="1" arrows="1" fold="1" page="1" pageScale="1" pageWidth="850" pageHeight="1100" math="0" shadow="0">
            <root>
                <mxCell id="0"/>
                <mxCell id="1" parent="0"/>
            </root>
        </mxGraphModel>
    </diagram>
</mxfile>